<svg xmlns="http://www.w3.org/2000/svg" version="1.1" xmlns:xlink="http://www.w3.org/1999/xlink" xmlns:svgjs="http://svgjs.dev/svgjs" width="1000" height="625" viewBox="0 0 1000 625"><g transform="matrix(1,0,0,1,0,0)"><svg viewBox="0 0 512 320" data-background-color="#ffffff" preserveAspectRatio="xMidYMid meet" height="625" width="1000" xmlns="http://www.w3.org/2000/svg" xmlns:xlink="http://www.w3.org/1999/xlink"><g id="tight-bounds" transform="matrix(1,0,0,1,0,0)"><svg viewBox="0 0 512 320" height="320" width="512"><g><svg></svg></g><g><svg viewBox="0 0 512 320" height="320" width="512"><g><path xmlns="http://www.w3.org/2000/svg" d="M96 160c0-88.366 71.634-160 160-160 88.366 0 160 71.634 160 160 0 88.366-71.634 160-160 160-88.366 0-160-71.634-160-160zM256 317.861c87.184 0 157.861-70.677 157.861-157.861 0-87.184-70.677-157.861-157.861-157.861-87.184 0-157.861 70.677-157.861 157.861 0 87.184 70.677 157.861 157.861 157.861z" fill="#8b3c7f" fill-rule="nonzero" stroke="none" stroke-width="1" stroke-linecap="butt" stroke-linejoin="miter" stroke-miterlimit="10" stroke-dasharray="" stroke-dashoffset="0" font-family="none" font-weight="none" font-size="none" text-anchor="none" style="mix-blend-mode: normal" data-fill-palette-color="tertiary"></path></g><g transform="matrix(1,0,0,1,116,20)"><svg viewBox="0 0 280 280" height="280" width="280"><g><svg viewBox="0 0 280 280" height="280" width="280"><g><svg viewBox="0 0 280 280" height="280" width="280"><g id="textblocktransform"><svg viewBox="0 0 280 280" height="280" width="280" id="textblock"><g><svg viewBox="0 0 280 280" height="280" width="280"><g transform="matrix(1,0,0,1,57.50420886156945,57.50420886156945)"><svg viewBox="0 0 164.9915822768611 164.9915822768611" height="164.9915822768611" width="164.9915822768611"><g><circle r="82" cx="82.49579113843055" cy="82.49579113843055" fill="#8b3c7f" data-fill-palette-color="accent"></circle><svg xmlns="http://www.w3.org/2000/svg" xmlns:xlink="http://www.w3.org/1999/xlink" version="1.1" x="24.748737341529164" y="24.74873734152917" viewBox="14.661893844604492 2.2618918418884277 69.51399230957031 95.33810424804688" style="enable-background:new 0 0 100 100;" xml:space="preserve" height="115.49410759380275" width="115.49410759380275" class="icon-o-0" data-fill-palette-color="quaternary" id="o-0"><path d="M82.6 38L82.6 38c-1.1-1.4-2.7-2.2-4.5-2.3-1.8-0.2-3.5 0.4-4.8 1.5-1.4 1.1-2.2 2.7-2.3 4.5s0.4 3.5 1.5 4.8c1 1.1 2.2 1.9 3.6 2.2v9.7L51 89.2V60.1l14-17.2V32c1-0.2 1.9-0.7 2.8-1.4 1.4-1.1 2.2-2.7 2.3-4.5 0.2-1.8-0.4-3.5-1.5-4.8-1.1-1.4-2.7-2.2-4.5-2.3-1.8-0.2-3.5 0.4-4.8 1.5-1.4 1.1-2.2 2.7-2.3 4.5-0.2 1.8 0.4 3.5 1.5 4.8 1 1.1 2.2 1.9 3.6 2.2v9.7L51 55.3v-40c1-0.2 1.9-0.7 2.8-1.4 1.4-1.1 2.2-2.7 2.3-4.5 0.2-1.8-0.4-3.5-1.5-4.8-1.1-1.4-2.7-2.2-4.5-2.3-1.8-0.2-3.5 0.4-4.8 1.5-1.4 1.1-2.2 2.7-2.3 4.5-0.2 1.8 0.4 3.5 1.5 4.8 1 1.1 2.2 1.9 3.6 2.2v32.3L36.7 37v-8c1.4-0.3 2.6-1 3.6-2.2 2.3-2.8 2-7-0.8-9.3-1.4-1.1-3.1-1.7-4.8-1.5-1.8 0.2-3.4 1-4.5 2.3-2.3 2.8-2 7 0.8 9.3 0.8 0.7 1.8 1.1 2.8 1.4v9.3L48 51.8v29.5L22.7 53.7v-9.7c1.4-0.3 2.6-1 3.6-2.2 2.3-2.8 2-7-0.8-9.3-1.4-1.1-3.1-1.7-4.8-1.5-1.8 0.2-3.4 1-4.5 2.3s-1.7 3.1-1.5 4.8c0.2 1.8 1 3.4 2.3 4.5 0.8 0.7 1.8 1.1 2.8 1.4v10.8L48 85.7v11.9h3V94l28-34.5V48.7c1-0.2 1.9-0.7 2.8-1.4C84.6 45 85 40.8 82.6 38z" fill="#ffffff" data-fill-palette-color="quaternary"></path></svg></g></svg></g><path d="M13.327 191.347l-2.871-9.415 26.948-8.218 2.839 9.31-1.466 0.447-2.281-7.482-10.814 3.298 1.875 6.149-1.39 0.424-1.875-6.15-11.851 3.615 2.314 7.586zM37.035 213.602l-3.729-6.119 1.309-0.797 3.728 6.119zM47.796 243.139l-1.352-1.308 18.52-19.15-4.049-3.916 1.066-1.101 9.35 9.042-1.066 1.101-3.949-3.818zM80.67 266.29l-8.573-4.834 13.837-24.541 8.478 4.78-0.753 1.335-6.813-3.842-5.553 9.848 5.6 3.158-0.713 1.265-5.6-3.157-6.086 10.792 6.909 3.896zM110.852 277.069v0c-1.799-0.435-3.089-1.14-3.871-2.114-0.775-0.973-1.191-2.128-1.249-3.467-0.058-1.338 0.095-2.762 0.46-4.271v0l2.816-11.636c0.381-1.573 0.911-2.93 1.589-4.069 0.683-1.132 1.595-1.935 2.734-2.41 1.139-0.475 2.576-0.503 4.31-0.083v0c1.599 0.387 2.774 1.003 3.526 1.846 0.75 0.85 1.174 1.902 1.274 3.155 0.106 1.254-0.029 2.659-0.405 4.213v0l-0.337 1.393-1.761-0.426 0.337-1.393c0.315-1.303 0.461-2.441 0.438-3.417-0.031-0.97-0.313-1.782-0.844-2.436-0.538-0.656-1.403-1.128-2.595-1.417v0c-1.303-0.315-2.371-0.287-3.205 0.085-0.828 0.373-1.484 1.013-1.97 1.919-0.479 0.908-0.874 2.004-1.184 3.287v0l-2.931 12.11c-0.326 1.348-0.47 2.535-0.432 3.561 0.04 1.02 0.345 1.875 0.914 2.566 0.578 0.686 1.496 1.181 2.754 1.485v0c1.219 0.295 2.216 0.263 2.992-0.095 0.784-0.363 1.405-0.984 1.864-1.862 0.465-0.877 0.847-1.935 1.147-3.173v0l0.4-1.654 1.76 0.426-0.327 1.354c-0.376 1.554-0.892 2.897-1.549 4.028-0.655 1.125-1.517 1.923-2.586 2.394-1.068 0.465-2.424 0.499-4.069 0.101zM145.39 279.9l-1.908 0.1-1.481-28.134 1.908-0.101 0.668 12.681 9.858-0.519-0.667-12.681 1.878-0.099 1.481 28.135-1.878 0.099-0.737-14.003-9.859 0.519zM189.188 271.343v0c-1.388 0.513-2.638 0.652-3.749 0.419-1.112-0.233-2.092-0.773-2.942-1.619-0.844-0.848-1.576-1.95-2.197-3.305v0l1.352-1.05c0.581 1.094 1.191 2.028 1.831 2.803 0.646 0.773 1.387 1.284 2.222 1.535 0.835 0.25 1.828 0.163 2.979-0.263v0c1.307-0.483 2.213-1.189 2.719-2.118 0.512-0.932 0.486-2.16-0.077-3.684v0c-0.425-1.151-1.107-2.077-2.045-2.778-0.946-0.704-2.157-1.389-3.633-2.053v0l-6.608-3.012c-1.109-0.531-1.999-1.143-2.672-1.835-0.677-0.684-1.176-1.461-1.498-2.333v0c-0.644-1.743-0.599-3.28 0.132-4.61 0.732-1.331 1.957-2.314 3.675-2.949v0c0.896-0.331 1.744-0.517 2.542-0.557 0.801-0.034 1.563 0.105 2.287 0.418 0.724 0.313 1.395 0.839 2.015 1.579 0.618 0.734 1.196 1.705 1.734 2.914v0l-1.363 0.906c-0.545-1.206-1.135-2.162-1.77-2.868-0.627-0.702-1.33-1.139-2.108-1.312-0.784-0.17-1.708-0.059-2.772 0.335v0c-1.195 0.441-2.084 1.116-2.668 2.025-0.578 0.906-0.617 2.035-0.119 3.385v0c0.248 0.672 0.625 1.272 1.132 1.8 0.502 0.536 1.26 1.037 2.274 1.504v0l6.505 2.934c1.45 0.652 2.78 1.427 3.988 2.325 1.211 0.904 2.077 2.062 2.599 3.474v0c0.49 1.326 0.644 2.51 0.463 3.553-0.187 1.045-0.648 1.94-1.384 2.686-0.738 0.739-1.686 1.323-2.844 1.751zM218.903 255.027l-1.539 1.132-16.697-22.692 1.539-1.133 7.525 10.228 7.952-5.85-7.526-10.229 1.515-1.114 16.697 22.692-1.515 1.115-8.31-11.294-7.951 5.851zM251.247 223.185v0c-1.081 1.478-2.214 2.408-3.398 2.79-1.185 0.383-2.403 0.363-3.656-0.06-1.254-0.433-2.526-1.121-3.816-2.066v0l-9.934-7.27c-1.29-0.944-2.31-1.95-3.059-3.016-0.744-1.062-1.099-2.206-1.065-3.431 0.039-1.221 0.585-2.552 1.639-3.992v0c1.054-1.44 2.157-2.363 3.31-2.769 1.158-0.402 2.355-0.41 3.592-0.023 1.243 0.392 2.509 1.059 3.8 2.004v0l9.966 7.294c1.29 0.944 2.324 1.947 3.101 3.009 0.775 1.053 1.16 2.201 1.153 3.446-0.007 1.245-0.551 2.606-1.633 4.084zM249.987 222.262v0c0.791-1.081 1.191-2.076 1.197-2.984-0.003-0.906-0.31-1.756-0.922-2.549-0.612-0.793-1.432-1.566-2.459-2.318v0l-10.497-7.682c-1.028-0.752-2.01-1.298-2.945-1.637-0.93-0.335-1.82-0.366-2.67-0.092-0.841 0.273-1.665 0.96-2.472 2.063v0c-0.795 1.087-1.2 2.078-1.213 2.972-0.008 0.898 0.288 1.74 0.889 2.526 0.606 0.789 1.424 1.56 2.452 2.312v0l10.496 7.681c1.028 0.752 2.012 1.3 2.953 1.644 0.941 0.343 1.844 0.379 2.709 0.107 0.859-0.275 1.687-0.957 2.482-2.043zM267.504 191.623l-0.625 1.774-26.571-9.366 2.197-6.232c0.562-1.596 1.303-2.738 2.221-3.428 0.916-0.683 1.951-1.025 3.105-1.026 1.158 0.007 2.391 0.241 3.699 0.702v0c1.183 0.417 2.246 0.992 3.19 1.726 0.948 0.742 1.603 1.68 1.963 2.813 0.358 1.139 0.26 2.494-0.293 4.065v0l-1.585 4.496zM242.313 182.743l11.122 3.921 1.446-4.102c0.377-1.07 0.499-2.015 0.366-2.836-0.127-0.818-0.54-1.541-1.24-2.168-0.698-0.633-1.739-1.193-3.122-1.68v0c-1.42-0.501-2.582-0.738-3.485-0.712-0.909 0.024-1.643 0.321-2.203 0.891-0.551 0.566-1.027 1.418-1.428 2.557v0z" fill="#8b3c7f" data-fill-palette-color="primary"></path><path d="M32.407 102.471L29.572 111.782 2.915 103.666 5.721 94.45 7.168 94.891 4.913 102.298 15.614 105.556 17.466 99.472 18.846 99.893 16.994 105.976 28.704 109.541 30.988 102.039ZM35.233 73.215L31.546 79.266 30.254 78.479 33.941 72.428ZM61.715 59.069L60.377 60.362 42.066 41.411 38.058 45.283 37.007 44.196 46.26 35.254 47.312 36.342 43.404 40.118ZM90.501 38.983L82.019 43.756 68.353 19.473 76.748 14.748 77.49 16.067 70.742 19.864 76.228 29.612 81.77 26.493 82.478 27.751 76.936 30.869 82.939 41.537 89.773 37.691ZM115.819 30.935V30.935C114.039 31.364 112.586 31.325 111.46 30.818 110.335 30.312 109.446 29.482 108.793 28.329 108.133 27.177 107.624 25.857 107.265 24.367V24.367L104.491 12.854C104.115 11.293 103.971 9.86 104.059 8.556 104.148 7.252 104.588 6.132 105.379 5.198 106.165 4.265 107.415 3.591 109.131 3.178V3.178C110.717 2.796 112.031 2.81 113.072 3.221 114.111 3.626 114.959 4.357 115.617 5.413 116.275 6.476 116.79 7.775 117.159 9.31V9.31L117.491 10.684 115.749 11.103 115.418 9.73C115.107 8.44 114.72 7.373 114.258 6.529 113.795 5.685 113.181 5.092 112.417 4.751 111.654 4.416 110.679 4.392 109.492 4.678V4.678C108.202 4.989 107.276 5.495 106.715 6.196 106.154 6.898 105.867 7.759 105.853 8.779 105.84 9.799 105.986 10.944 106.292 12.215V12.215L109.176 24.183C109.499 25.524 109.907 26.637 110.4 27.522 110.898 28.398 111.554 29.011 112.368 29.361 113.181 29.704 114.21 29.726 115.455 29.426V29.426C116.661 29.135 117.525 28.658 118.048 27.993 118.575 27.32 118.843 26.494 118.853 25.516 118.863 24.538 118.72 23.432 118.423 22.2V22.2L118.029 20.565 119.77 20.146 120.092 21.481C120.464 23.022 120.616 24.436 120.551 25.721 120.48 27.014 120.082 28.11 119.357 29.008 118.63 29.9 117.451 30.542 115.819 30.935ZM144.482 27.926L142.594 27.825 144.087 0 145.975 0.101 145.302 12.642 155.061 13.166 155.734 0.625 157.582 0.724 156.089 28.549 154.241 28.45 154.984 14.607 145.225 14.083ZM182.103 35.953V35.953C180.728 35.444 179.699 34.745 179.017 33.855 178.329 32.963 177.942 31.925 177.857 30.741 177.764 29.56 177.919 28.262 178.323 26.848V26.848L180.023 26.927C179.751 28.12 179.607 29.217 179.591 30.215 179.577 31.208 179.803 32.066 180.271 32.791 180.738 33.516 181.541 34.09 182.679 34.511V34.511C183.967 34.988 185.101 35.04 186.081 34.668 187.065 34.303 187.836 33.368 188.394 31.863V31.863C188.818 30.718 188.902 29.582 188.648 28.455 188.396 27.321 187.927 26.027 187.243 24.57V24.57L184.221 18.06C183.726 16.95 183.447 15.916 183.385 14.959 183.326 14.01 183.455 13.107 183.773 12.248V12.248C184.412 10.525 185.433 9.4 186.838 8.873 188.245 8.34 189.798 8.388 191.497 9.017V9.017C192.38 9.345 193.135 9.752 193.761 10.238 194.387 10.725 194.871 11.321 195.21 12.027 195.546 12.725 195.711 13.55 195.705 14.503 195.692 15.453 195.503 16.558 195.136 17.815V17.815L193.521 17.62C193.888 16.363 194.061 15.263 194.042 14.322 194.02 13.387 193.772 12.605 193.298 11.977 192.823 11.348 192.057 10.838 190.999 10.446V10.446C189.817 10.008 188.716 9.944 187.696 10.252 186.676 10.561 185.92 11.381 185.427 12.712V12.712C185.18 13.378 185.078 14.072 185.122 14.796 185.157 15.523 185.403 16.386 185.861 17.383V17.383L188.853 23.776C189.528 25.201 190.028 26.639 190.354 28.089 190.684 29.549 190.59 30.975 190.074 32.369V32.369C189.588 33.681 188.938 34.672 188.125 35.34 187.32 36.004 186.399 36.377 185.364 36.461 184.328 36.544 183.241 36.375 182.103 35.953ZM207.174 49.017L205.653 47.895 222.19 25.468 223.712 26.59 216.258 36.698 224.124 42.498 231.577 32.39 233.067 33.489 216.53 55.915 215.04 54.817 223.267 43.66 215.402 37.86ZM234.552 76.993V76.993C233.484 75.53 232.946 74.181 232.939 72.945 232.936 71.715 233.323 70.574 234.099 69.523 234.881 68.467 235.909 67.473 237.184 66.542V66.542L247.021 59.357C248.296 58.426 249.547 57.771 250.774 57.392 252.002 57.004 253.186 57.01 254.325 57.411 255.473 57.813 256.567 58.727 257.608 60.152V60.152C258.649 61.577 259.185 62.895 259.214 64.105 259.253 65.317 258.901 66.449 258.158 67.502 257.42 68.55 256.414 69.54 255.139 70.471V70.471L245.279 77.674C243.998 78.609 242.742 79.284 241.509 79.7 240.285 80.117 239.086 80.135 237.911 79.752 236.74 79.375 235.621 78.455 234.552 76.993ZM235.806 76.077V76.077C236.589 77.148 237.405 77.822 238.255 78.096 239.11 78.367 240.003 78.335 240.933 78.001 241.86 77.661 242.835 77.117 243.858 76.37V76.37L254.241 68.786C255.264 68.038 256.073 67.279 256.668 66.507 257.264 65.727 257.562 64.897 257.561 64.019 257.56 63.14 257.161 62.154 256.363 61.061V61.061C255.576 59.985 254.76 59.307 253.916 59.028 253.076 58.755 252.193 58.783 251.268 59.114 250.352 59.446 249.382 59.986 248.359 60.733V60.733L237.976 68.317C236.953 69.065 236.138 69.828 235.533 70.608 234.931 71.392 234.627 72.23 234.621 73.122 234.624 74.015 235.019 75 235.806 76.077ZM248.694 102.999L248.077 101.243 274.366 92.004 276.534 98.172C277.088 99.75 277.224 101.087 276.942 102.185 276.66 103.283 276.071 104.189 275.176 104.905 274.288 105.618 273.196 106.202 271.9 106.657V106.657C270.729 107.069 269.55 107.283 268.36 107.3 267.177 107.315 266.094 106.996 265.112 106.343 264.13 105.689 263.366 104.586 262.821 103.034V103.034L261.257 98.584ZM273.622 94.238L262.618 98.105 264.043 102.161C264.415 103.219 264.906 104.024 265.515 104.577 266.118 105.131 266.885 105.435 267.818 105.487 268.748 105.532 269.895 105.316 271.26 104.836V104.836C272.662 104.343 273.704 103.808 274.388 103.23 275.077 102.651 275.459 101.968 275.535 101.182 275.612 100.402 275.453 99.449 275.057 98.322V98.322Z" fill="#8b3c7f" data-fill-palette-color="primary"></path><path d="M11.988 143.929c0-1.783 1.446-3.229 3.229-3.229 1.783 0 3.229 1.446 3.228 3.229 0 1.783-1.446 3.229-3.228 3.229-1.783 0-3.229-1.446-3.229-3.229zM262.777 143.929c0-1.783 1.446-3.229 3.229-3.229 1.783 0 3.229 1.446 3.228 3.229 0 1.783-1.446 3.229-3.228 3.229-1.783 0-3.229-1.446-3.229-3.229z" fill="#8b3c7f" data-fill-palette-color="primary"></path></svg></g></svg></g></svg></g></svg></g></svg></g></svg></g><defs></defs></svg><rect width="512" height="320" fill="none" stroke="none" visibility="hidden"></rect></g></svg></g></svg>